<svg width="68" height="41" viewBox="0 0 68 41" fill="none" xmlns="http://www.w3.org/2000/svg">
<g clip-path="url(#clip0_25_17)">
<path d="M68.0001 20.5C68.0001 31.5456 58.9794 40.5 47.852 40.5H47.5913H47.4307L47.2752 40.4962C47.1606 40.4962 47.0454 40.4887 46.9314 40.4837C46.8867 40.4837 46.8427 40.48 46.798 40.4769L46.5581 40.4637L46.3837 40.4519L46.3238 40.4475C46.2716 40.4437 46.2193 40.44 46.1671 40.435C46.1148 40.43 46.0739 40.4275 46.0273 40.4231C45.97 40.4181 45.9127 40.4131 45.8548 40.4069L45.7584 40.3975C45.6224 40.3837 45.4871 40.3687 45.3517 40.3512C45.3007 40.3456 45.2491 40.3387 45.1974 40.3319C45.0715 40.3165 44.9479 40.2992 44.8266 40.28L44.6408 40.25C44.5779 40.2406 44.5149 40.2306 44.457 40.22L44.2738 40.1881C44.1932 40.1744 44.1126 40.1594 44.0332 40.1437C43.9703 40.1331 43.9136 40.1212 43.8538 40.1094L43.7279 40.0831C43.6057 40.0581 43.4848 40.0319 43.364 40.0044L43.1858 39.9631L43.0063 39.92C42.8867 39.8912 42.7677 39.8608 42.6493 39.8287L42.4724 39.7812L42.2955 39.7319C42.1777 39.6981 42.06 39.6637 41.9435 39.6281L41.7924 39.5819L41.7194 39.5587L41.5758 39.5125C41.4537 39.4725 41.3315 39.4319 41.2106 39.3875L41.0368 39.325L41.0192 39.3187L40.8492 39.2562C40.6685 39.1937 40.4903 39.1219 40.3128 39.05L40.1358 38.9781L39.9595 38.9044C39.842 38.8556 39.7253 38.805 39.6095 38.7525L39.459 38.6875L39.4105 38.6656L39.2921 38.6106C38.7884 38.3765 38.2959 38.1215 37.8144 37.8456L37.6639 37.7587C37.5827 37.7119 37.5015 37.6637 37.4215 37.615L37.2956 37.5369L37.2477 37.5081L37.1287 37.4337C36.9566 37.3271 36.7871 37.2175 36.62 37.105L36.467 37C36.3923 36.9496 36.318 36.8983 36.2441 36.8462C36.2399 36.8437 36.2359 36.8408 36.2321 36.8375C36.1557 36.7842 36.0802 36.7304 36.0055 36.6762L35.9923 36.6669C35.9112 36.6081 35.8306 36.5487 35.7505 36.4887C35.7408 36.4824 35.7316 36.4755 35.7228 36.4681C35.6529 36.4162 35.5836 36.3637 35.515 36.31C35.4986 36.2987 35.4835 36.2869 35.4684 36.2744C35.401 36.2225 35.3337 36.17 35.2669 36.1162C35.2417 36.0969 35.2165 36.0762 35.1914 36.0537C35.1234 36 35.0554 35.9444 34.988 35.8881C34.9729 35.8769 34.9584 35.865 34.9445 35.8525C34.8967 35.8133 34.8488 35.7733 34.801 35.7325C34.7582 35.6969 34.7154 35.66 34.6751 35.6237C34.6033 35.5633 34.5326 35.5008 34.4629 35.4362C34.388 35.3706 34.3143 35.3037 34.2406 35.2369C34.167 35.17 34.0977 35.1062 34.0272 35.0394C33.6779 34.7131 33.3407 34.374 33.0154 34.0219C32.9782 33.9825 32.9417 33.9425 32.9058 33.9025C32.8554 33.8481 32.8057 33.7931 32.7572 33.7375C32.7087 33.6819 32.6647 33.6337 32.6193 33.5812C32.574 33.5287 32.5142 33.46 32.4619 33.3987C32.3083 33.2192 32.1584 33.0369 32.0124 32.8519L31.8915 32.6975C31.7769 32.5512 31.6648 32.4029 31.5553 32.2525C31.4923 32.1662 31.4293 32.08 31.3664 31.9925C31.3618 31.9867 31.3576 31.9807 31.3538 31.9744C31.2929 31.8881 31.2325 31.8012 31.1724 31.7137C31.1174 31.6346 31.0637 31.5548 31.0113 31.4744C30.9898 31.4431 30.9684 31.4119 30.9483 31.3781C30.9101 31.3206 30.8723 31.2625 30.835 31.2037C30.8205 31.1819 30.806 31.16 30.7928 31.1375C30.7386 31.0542 30.6853 30.9687 30.6328 30.8812C30.5749 30.7875 30.5183 30.6937 30.4622 30.5975C30.4062 30.5012 30.3508 30.41 30.296 30.3112C30.2645 30.2556 30.233 30.2006 30.2022 30.1444L30.1348 30.0194C30.0964 29.9506 30.0593 29.8812 30.0221 29.8119C30.0133 29.7956 30.0045 29.7787 29.9963 29.7619C29.9648 29.6994 29.9333 29.6425 29.9025 29.5825C29.8647 29.5087 29.8275 29.435 29.7904 29.3612C29.7533 29.2875 29.7174 29.2131 29.6815 29.1394C29.6093 28.9906 29.539 28.8408 29.4705 28.69C29.4021 28.5392 29.3356 28.3873 29.271 28.2344C29.2388 28.1581 29.208 28.0812 29.1753 28.0044C29.1425 27.9275 29.1123 27.8512 29.0827 27.7744C29.0525 27.6975 29.0197 27.6206 28.9933 27.5431C28.9668 27.4656 28.9347 27.3875 28.9058 27.3094C28.8218 27.0752 28.7406 26.8385 28.6621 26.5994C28.6363 26.52 28.6111 26.44 28.5865 26.36C28.5507 26.2444 28.516 26.1275 28.482 26.0106C28.4657 25.9525 28.4487 25.8937 28.4323 25.835C28.4159 25.7762 28.4002 25.7181 28.3844 25.6594C28.3521 25.5419 28.3215 25.4237 28.2925 25.305C28.2774 25.2458 28.2629 25.1865 28.2491 25.1269L28.2075 24.95C28.1798 24.83 28.1534 24.71 28.1282 24.5888L28.1017 24.4638C28.0898 24.4044 28.0778 24.345 28.0671 24.2856C28.0514 24.2069 28.0363 24.1269 28.0224 24.0469C28.0111 23.9865 28.0004 23.9258 27.9903 23.865C27.9796 23.8025 27.9695 23.74 27.9601 23.6825C27.9506 23.625 27.9405 23.5575 27.9311 23.4988C27.9122 23.3738 27.8952 23.2537 27.8788 23.1306C27.8719 23.0794 27.865 23.0281 27.8593 22.9775C27.8417 22.8431 27.8266 22.7087 27.8127 22.5738C27.809 22.5421 27.8058 22.5102 27.8033 22.4781C27.797 22.4206 27.792 22.3638 27.7869 22.3069C27.7825 22.2606 27.7781 22.2144 27.775 22.1681C27.7718 22.1219 27.7661 22.0644 27.7624 22.0125C27.7624 21.9925 27.7592 21.9731 27.758 21.9531C27.7535 21.8956 27.7498 21.8375 27.746 21.78C27.741 21.7004 27.7365 21.621 27.7328 21.5419C27.7296 21.4975 27.7277 21.4538 27.7258 21.4094C27.7208 21.2963 27.7164 21.1819 27.7133 21.0681L27.7095 20.9138C27.7095 20.8606 27.7095 20.8075 27.7095 20.7544C27.7095 20.6681 27.7095 20.5819 27.7095 20.4956C27.7095 20.4094 27.7095 20.3231 27.7095 20.2369C27.7095 20.1619 27.7107 20.0869 27.7133 20.0119C27.7177 19.8194 27.7252 19.6281 27.7359 19.4369C27.7391 19.3669 27.7428 19.2963 27.7479 19.2263C27.7548 19.1156 27.7624 19.0044 27.7712 18.8944C27.7762 18.8319 27.7819 18.7694 27.7875 18.7031C27.7938 18.6288 27.8014 18.5544 27.809 18.4794L27.8146 18.4206C27.8222 18.3469 27.8304 18.2731 27.8392 18.1994C27.848 18.1219 27.8574 18.045 27.8669 17.9688C27.8744 17.91 27.882 17.8519 27.8902 17.7938C27.8984 17.7356 27.9047 17.6894 27.9122 17.6375C27.9345 17.4817 27.9586 17.3267 27.9846 17.1725C27.9966 17.1019 28.0085 17.0319 28.0211 16.9619C28.0208 16.9579 28.0208 16.954 28.0211 16.95C28.0476 16.8006 28.0759 16.6525 28.1068 16.5044C28.1137 16.4694 28.1206 16.435 28.1282 16.4006C28.1483 16.3025 28.1697 16.2044 28.1911 16.1069C28.2394 15.8915 28.2917 15.6775 28.3479 15.465C28.3706 15.3769 28.3939 15.2888 28.4184 15.2006C28.4455 15.1019 28.4738 15.0025 28.5028 14.9044C28.5286 14.8156 28.5551 14.7269 28.5828 14.6388C28.5872 14.6219 28.5922 14.6056 28.5979 14.5894C28.6262 14.4981 28.6552 14.4075 28.6848 14.3169C28.7162 14.22 28.7477 14.1244 28.7817 14.0281C28.8157 13.9319 28.8478 13.8406 28.8825 13.7425L28.8863 13.7319C28.9077 13.6694 28.9297 13.6119 28.953 13.5525C28.9763 13.4931 28.9908 13.45 29.0103 13.3988C29.0733 13.2381 29.1362 13.0781 29.1992 12.92C29.2206 12.8675 29.242 12.815 29.2621 12.7631C29.2716 12.7388 29.2823 12.715 29.293 12.6913C29.3188 12.6288 29.3459 12.5663 29.3736 12.5038C29.3786 12.4913 29.3837 12.4794 29.3893 12.4675C29.4189 12.4 29.4523 12.3331 29.4794 12.2663C29.5467 12.1188 29.6154 11.9719 29.6865 11.8288C29.7104 11.7794 29.7344 11.73 29.7589 11.6813C29.7835 11.6325 29.7998 11.5981 29.8219 11.5563C29.8439 11.5144 29.8565 11.4863 29.8748 11.4519C29.893 11.4175 29.9125 11.3775 29.9327 11.34C29.9604 11.2863 29.9887 11.2325 30.0171 11.1794C30.0542 11.1088 30.092 11.0388 30.1298 10.9694C30.2318 10.7831 30.3367 10.599 30.4446 10.4169C30.4729 10.3688 30.5013 10.3213 30.5302 10.2738C30.5642 10.2163 30.5988 10.1594 30.6341 10.1025C30.7128 9.97313 30.794 9.84438 30.8765 9.7175C30.9193 9.65063 30.9634 9.58375 31.0075 9.5175C31.0421 9.46438 31.0774 9.41188 31.1126 9.36C31.3086 9.06834 31.5122 8.78396 31.7234 8.50688C31.7561 8.46313 31.7895 8.42 31.8228 8.37688C31.8436 8.34875 31.8644 8.32125 31.8858 8.29438L32.0067 8.14C32.1528 7.955 32.3026 7.77271 32.4562 7.59313C32.5085 7.53063 32.5608 7.46813 32.6137 7.41063C32.6665 7.35313 32.705 7.30626 32.7515 7.25438C32.7981 7.20251 32.8498 7.14375 32.9001 7.08938C32.936 7.04938 32.9725 7.00938 33.0097 6.97001C33.3262 6.62667 33.6551 6.29521 33.9963 5.97563C35.5414 7.42832 36.8462 9.11356 37.8629 10.9694C35.38 13.5295 33.9951 16.9463 34.0001 20.5C34.0001 20.6619 34.0001 20.8231 34.0089 20.9831C34.0824 23.1648 34.6808 25.2973 35.7542 27.2025C35.8604 27.3912 35.9711 27.5771 36.0861 27.76L55.1638 8.8225C53.1101 7.55178 50.7554 6.84042 48.3368 6.76001C48.1756 6.75376 48.0131 6.75126 47.8501 6.75126C46.2509 6.74937 44.6636 7.02302 43.1587 7.56001C42.0869 5.68609 40.7873 3.94997 39.289 2.39063C39.6815 2.20688 40.0802 2.03605 40.4853 1.87813L40.6528 1.81563C40.7925 1.76188 40.9336 1.71063 41.0752 1.66063C41.1338 1.63938 41.193 1.61938 41.2522 1.59813C41.3114 1.57688 41.3699 1.55751 41.4297 1.53563C41.4895 1.51376 41.5557 1.49313 41.6218 1.47313C41.6998 1.44751 41.7785 1.42313 41.8579 1.39876L42.0568 1.33626C42.2092 1.29126 42.3624 1.24772 42.5165 1.20563C42.5599 1.19376 42.6027 1.18188 42.6462 1.17126C42.7016 1.15626 42.7576 1.14126 42.8137 1.12751C42.8697 1.11376 42.9396 1.09501 43.0025 1.07938C43.0819 1.06001 43.1612 1.04063 43.2412 1.02251L43.3595 1.00001L43.5018 0.968757C43.6794 0.930007 43.8582 0.893132 44.0383 0.859382C44.1195 0.843757 44.2007 0.828757 44.2826 0.814382H44.2914C44.372 0.799382 44.4532 0.785632 44.5344 0.772507C44.6717 0.750007 44.8098 0.729174 44.9487 0.710007L45.0917 0.687507C45.3082 0.658132 45.5255 0.631882 45.7446 0.609382L45.8453 0.599382C45.9045 0.593132 45.9631 0.588132 46.0216 0.583132C46.1085 0.575007 46.1954 0.567507 46.2823 0.561257L46.3792 0.554382C46.4359 0.550007 46.4932 0.545632 46.5505 0.542507H46.57L46.7772 0.530632C46.8722 0.525632 46.9661 0.521257 47.0637 0.517507L47.2601 0.511257C47.3098 0.511257 47.3602 0.508132 47.41 0.507507H47.551C47.6511 0.507507 47.7512 0.507507 47.852 0.507507H48.1126H48.2732L48.4287 0.511257C48.5433 0.511257 48.6579 0.518757 48.7725 0.523757C48.8172 0.523757 48.8612 0.527507 48.906 0.530632C48.9857 0.534382 49.0657 0.538757 49.1458 0.543757L49.3202 0.555632L49.3801 0.560007C49.4323 0.563757 49.4846 0.567507 49.5368 0.572507C49.5891 0.577507 49.63 0.580007 49.6766 0.584382C49.7339 0.589382 49.7912 0.594382 49.8491 0.600632C49.881 0.603132 49.9131 0.606257 49.9455 0.610007C50.0815 0.623757 50.2168 0.638757 50.3522 0.656257C50.4032 0.661882 50.4548 0.668757 50.5065 0.675632C50.6324 0.691882 50.7539 0.708757 50.8773 0.727507L51.0624 0.756257C51.1254 0.765632 51.1884 0.775632 51.2463 0.786257L51.4295 0.818132C51.5101 0.831882 51.5907 0.846882 51.67 0.862507C51.733 0.873132 51.7897 0.885007 51.8495 0.896882L51.9754 0.923132C52.0975 0.948132 52.2184 0.974382 52.3393 1.00188L52.5175 1.04313C52.5775 1.05688 52.6373 1.07126 52.697 1.08626C52.8166 1.11501 52.9356 1.14542 53.054 1.17751L53.2309 1.22501L53.4078 1.27438C53.5255 1.30813 53.6433 1.34251 53.7598 1.37813L53.9613 1.44063L54.1621 1.50313L54.3617 1.56938C54.4945 1.61438 54.6268 1.66126 54.7584 1.70876L54.9548 1.78126C55.009 1.80126 55.0631 1.82209 55.1172 1.84376C55.2016 1.87501 55.2847 1.90626 55.3691 1.94126L55.541 2.01126L55.7337 2.09126C55.7966 2.11813 55.8596 2.14563 55.9225 2.17376C55.9855 2.20188 56.0485 2.22876 56.1114 2.25751L56.3003 2.34376C56.3633 2.37251 56.4262 2.40188 56.4892 2.43188C56.5711 2.47001 56.6523 2.50876 56.7329 2.54876L56.8632 2.61126C56.9262 2.64188 56.9891 2.67376 57.0521 2.70501C57.178 2.76751 57.2977 2.83001 57.4198 2.89751L57.5797 2.98438C57.6899 3.04688 57.7988 3.10501 57.9065 3.16751L58.0324 3.23938C58.1886 3.33001 58.3435 3.42251 58.4965 3.51813L58.6098 3.58876C58.6451 3.61063 58.6803 3.63251 58.715 3.65501C58.7779 3.69688 58.8459 3.73876 58.9108 3.78001C58.9567 3.80938 59.0021 3.83876 59.0468 3.86938C59.0915 3.90001 59.1324 3.92626 59.1727 3.95563C59.524 4.1923 59.867 4.44021 60.2015 4.69938C60.2424 4.73001 60.2834 4.76188 60.3237 4.79376C60.5037 4.93459 60.6811 5.07855 60.8557 5.22563L61.032 5.37501C61.095 5.42876 61.1579 5.48251 61.2209 5.53751C61.2599 5.57126 61.2983 5.60563 61.3367 5.64063C61.4205 5.71438 61.503 5.79001 61.5848 5.86626C61.6345 5.91188 61.6843 5.95813 61.7334 6.00501C61.9815 6.23834 62.223 6.47813 62.4581 6.72438C62.5053 6.77313 62.5519 6.8225 62.5979 6.87188C62.6747 6.95313 62.7509 7.03501 62.8252 7.11813C62.8604 7.15626 62.8951 7.19438 62.9291 7.23313C62.9845 7.29563 63.0386 7.35813 63.0928 7.42063C63.1469 7.48313 63.191 7.53375 63.2395 7.59063C63.3872 7.76355 63.5322 7.93959 63.6745 8.11875C63.7067 8.15875 63.7375 8.19938 63.7696 8.24C63.9006 8.40667 64.0282 8.5748 64.1524 8.74438L45.7817 26.9744L40.5382 32.1794C42.5919 33.4502 44.9466 34.1616 47.3652 34.2419C47.5264 34.2481 47.6889 34.2506 47.852 34.2506C55.502 34.2506 61.7038 28.0944 61.7038 20.5006C61.7038 20.3388 61.7038 20.1775 61.695 20.0175L64.5283 17.205L67.1186 14.6331C67.1545 14.7488 67.1891 14.8656 67.2231 14.9825C67.2395 15.0406 67.2565 15.0994 67.2729 15.1581C67.2892 15.2169 67.305 15.275 67.3207 15.3338C67.3526 15.4513 67.3833 15.5694 67.4127 15.6881C67.4278 15.7477 67.4422 15.8071 67.4561 15.8663L67.4977 16.0431C67.5254 16.1631 67.5518 16.2831 67.577 16.4044L67.6034 16.5294C67.6154 16.5888 67.6274 16.6481 67.6381 16.7075C67.6538 16.7863 67.6689 16.8663 67.6828 16.9463C67.6941 17.0067 67.7048 17.0673 67.7149 17.1281C67.7256 17.1906 67.7357 17.2531 67.7451 17.3106C67.7545 17.3681 67.7646 17.4356 67.7741 17.4944C67.793 17.6169 67.8104 17.7396 67.8263 17.8625C67.8332 17.9138 67.8402 17.965 67.8458 18.0156C67.8635 18.15 67.8786 18.2844 67.8924 18.4194C67.8962 18.451 67.8994 18.4829 67.9019 18.515C67.9082 18.5725 67.9132 18.6294 67.9182 18.6863C67.9227 18.7325 67.9271 18.7788 67.9302 18.825C67.9334 18.8713 67.939 18.9288 67.9428 18.9806C67.9428 19.0006 67.946 19.02 67.9472 19.04C67.9516 19.0975 67.9554 19.1556 67.9592 19.2131C67.9642 19.2927 67.9686 19.3721 67.9724 19.4513C67.9724 19.4956 67.9774 19.5394 67.9793 19.5838C67.9844 19.6975 67.9888 19.8113 67.9919 19.925L67.9957 20.0794C67.9957 20.1325 67.9957 20.1856 67.9957 20.2388C67.9986 20.3267 68.0001 20.4138 68.0001 20.5Z" fill="#71A894"/>
<path d="M34 5.97682C33.6592 6.29682 33.3303 6.62828 33.0134 6.97119C32.9762 7.01057 32.9397 7.05057 32.9038 7.09057C32.8534 7.14494 32.8037 7.19994 32.7552 7.25557C32.7067 7.31119 32.6627 7.35932 32.6173 7.41182C32.572 7.46432 32.5122 7.53307 32.4599 7.59432C32.3063 7.77349 32.1564 7.95578 32.0104 8.14119L31.8895 8.29557C31.8674 8.32244 31.8467 8.34995 31.8265 8.37807C31.7931 8.4212 31.7598 8.46432 31.727 8.50807C31.5172 8.78682 31.3136 9.07119 31.1163 9.36119C31.081 9.41307 31.0458 9.46557 31.0111 9.51869C30.9671 9.58494 30.923 9.65182 30.8802 9.71869C30.7977 9.84369 30.7165 9.97432 30.6378 10.1037C30.6025 10.1606 30.5679 10.2174 30.5339 10.2749C30.5049 10.3224 30.4766 10.3699 30.4483 10.4181C30.3408 10.6002 30.2359 10.7843 30.1334 10.9706C28.8426 9.63401 27.2923 8.57095 25.5761 7.84555C23.8599 7.12015 22.0134 6.74745 20.1481 6.74994C12.4981 6.74994 6.2963 12.9062 6.2963 20.4999C6.2963 28.0937 12.4981 34.25 20.1481 34.25C21.7473 34.2518 23.3346 33.9782 24.8395 33.4412C25.9118 35.3149 27.2121 37.0506 28.7111 38.6093C26.0322 39.8586 23.108 40.5042 20.1481 40.5C9.0207 40.5 0 31.5456 0 20.4999C0 9.45432 9.0207 0.499943 20.1481 0.499943C25.3017 0.496842 30.2599 2.45727 34 5.97682Z" fill="#303031"/>
</g>
<defs>
<clipPath id="clip0_25_17">
<rect width="68" height="40" fill="white" transform="translate(0 0.5)"/>
</clipPath>
</defs>
</svg>
